<svg width="48" height="49" viewBox="0 0 48 49" fill="none" xmlns="http://www.w3.org/2000/svg">
<path d="M0 48.5C-2.75532e-07 45.3483 0.620774 42.2274 1.82689 39.3156C3.033 36.4038 4.80082 33.758 7.02943 31.5294C9.25803 29.3008 11.9038 27.533 14.8156 26.3269C17.7274 25.1208 20.8482 24.5 24 24.5V48.5L0 48.5Z" fill="#1A1A1A"/>
<path d="M24 24.5C24 27.6517 24.6208 30.7726 25.8269 33.6844C27.033 36.5962 28.8008 39.2419 31.0294 41.4705C33.258 43.6991 35.9038 45.467 38.8156 46.6731C41.7274 47.8792 44.8483 48.5 48 48.5L48 24.5L24 24.5Z" fill="#FFD400"/>
<path d="M24 24.5C24 21.3482 23.3792 18.2274 22.1731 15.3156C20.967 12.4038 19.1991 9.75803 16.9705 7.52943C14.7419 5.30082 12.0962 3.533 9.18439 2.32689C6.27258 1.12078 3.15172 0.5 0 0.5L1.66459e-06 24.5H24Z" fill="#FFD400"/>
<path d="M48 0.5C48 3.65172 47.3792 6.77258 46.1731 9.68439C44.967 12.5962 43.1991 15.2419 40.9705 17.4705C38.7419 19.6991 36.0962 21.467 33.1844 22.6731C30.2726 23.8792 27.1517 24.5 24 24.5L24 0.5H48Z" fill="#1A1A1A"/>
</svg>
