<svg width="25" height="25" viewBox="0 0 25 25" fill="none" xmlns="http://www.w3.org/2000/svg">
<path fill-rule="evenodd" clip-rule="evenodd" d="M8.12549 6.5V7.25H6.13836C5.17881 7.25 4.37411 7.97444 4.27366 8.92872L3.0105 20.9287C2.89397 22.0358 3.76201 23 4.8752 23H20.3759C21.4891 23 22.3572 22.0358 22.2406 20.9287L20.9775 8.92872C20.877 7.97444 20.0723 7.25 19.1128 7.25H17.1255V6.5C17.1255 4.01472 15.1108 2 12.6255 2C10.1402 2 8.12549 4.01472 8.12549 6.5ZM12.6255 3.5C10.9686 3.5 9.62549 4.84315 9.62549 6.5V7.25H15.6255V6.5C15.6255 4.84315 14.2823 3.5 12.6255 3.5ZM9.62549 11.75C9.62549 13.4069 10.9686 14.75 12.6255 14.75C14.2823 14.75 15.6255 13.4069 15.6255 11.75V11C15.6255 10.5858 15.9613 10.25 16.3755 10.25C16.7897 10.25 17.1255 10.5858 17.1255 11V11.75C17.1255 14.2353 15.1108 16.25 12.6255 16.25C10.1402 16.25 8.12549 14.2353 8.12549 11.75V11C8.12549 10.5858 8.46128 10.25 8.87549 10.25C9.2897 10.25 9.62549 10.5858 9.62549 11V11.75Z" fill="white"/>
</svg>
