<svg width="25" height="25" viewBox="0 0 25 25" fill="none" xmlns="http://www.w3.org/2000/svg">
<path d="M2.625 2.75C2.21079 2.75 1.875 3.08579 1.875 3.5C1.875 3.91421 2.21079 4.25 2.625 4.25H4.01068C4.18058 4.25 4.32925 4.36422 4.37303 4.52838L6.93076 14.1199C5.31678 14.5385 4.125 16.0051 4.125 17.75C4.125 18.1642 4.46079 18.5 4.875 18.5H20.625C21.0392 18.5 21.375 18.1642 21.375 17.75C21.375 17.3358 21.0392 17 20.625 17H5.75303C6.06191 16.1261 6.89534 15.5 7.875 15.5H19.0933C19.3801 15.5 19.6418 15.3364 19.7675 15.0785C20.9027 12.749 21.8933 10.336 22.7277 7.85126C22.7941 7.65357 22.7752 7.43716 22.6755 7.25399C22.5758 7.07082 22.4044 6.93743 22.2023 6.88583C17.3805 5.65442 12.3286 5 7.125 5C6.76717 5 6.41005 5.0031 6.05368 5.00926L5.82238 4.14188C5.6035 3.32109 4.86015 2.75 4.01068 2.75H2.625Z" fill="#262626"/>
<path d="M4.125 20.75C4.125 19.9216 4.79657 19.25 5.625 19.25C6.45343 19.25 7.125 19.9216 7.125 20.75C7.125 21.5784 6.45343 22.25 5.625 22.25C4.79657 22.25 4.125 21.5784 4.125 20.75Z" fill="#262626"/>
<path d="M16.875 20.75C16.875 19.9216 17.5466 19.25 18.375 19.25C19.2034 19.25 19.875 19.9216 19.875 20.75C19.875 21.5784 19.2034 22.25 18.375 22.25C17.5466 22.25 16.875 21.5784 16.875 20.75Z" fill="#262626"/>
</svg>
