<?xml version="1.0" encoding="UTF-8"?>
<svg xmlns="http://www.w3.org/2000/svg" xmlns:xlink="http://www.w3.org/1999/xlink" width="28px" height="28px" viewBox="0 0 28 28" version="1.1">
<g id="surface1">
<path style=" stroke:none;fill-rule:nonzero;fill:rgb(0%,0%,0%);fill-opacity:1;" d="M 22.492188 21.257812 C 22.835938 21.597656 22.835938 22.152344 22.492188 22.492188 C 22.152344 22.835938 21.597656 22.835938 21.257812 22.492188 L 14 15.238281 L 6.742188 22.492188 C 6.402344 22.835938 5.847656 22.835938 5.507812 22.492188 C 5.164062 22.152344 5.164062 21.597656 5.507812 21.257812 L 12.761719 14 L 5.507812 6.742188 C 5.164062 6.402344 5.164062 5.847656 5.507812 5.507812 C 5.847656 5.164062 6.402344 5.164062 6.742188 5.507812 L 14 12.761719 L 21.257812 5.507812 C 21.597656 5.164062 22.152344 5.164062 22.492188 5.507812 C 22.835938 5.847656 22.835938 6.402344 22.492188 6.742188 L 15.238281 14 Z M 22.492188 21.257812 "/>
</g>
</svg>
