<svg width="22" height="20" viewBox="0 0 22 20" fill="none" xmlns="http://www.w3.org/2000/svg">
<path d="M10.8934 4.08887C11.3687 3.82014 11.878 3.539 12.3782 3.24281C12.4534 3.19835 12.511 3.08982 12.5351 2.99959C12.6953 2.4033 12.83 1.79916 13.002 1.20679C13.0955 0.886417 13.3302 0.766113 13.5636 0.873995C13.8415 1.0028 13.8395 1.22837 13.7585 1.48271C13.6467 1.83381 13.5427 2.18819 13.4394 2.54191C13.2753 3.10682 13.3119 3.64819 13.5584 4.19413C13.8683 4.88 13.7447 5.57829 13.4204 6.21315C12.9222 7.18736 12.9902 8.12756 13.4015 9.10111C14.1939 10.9802 15.3008 12.6704 16.4843 14.316C17.0112 15.0496 17.5853 15.7492 18.1143 16.4815C18.2117 16.6162 18.2751 16.8777 18.2078 16.9994C18.1411 17.1203 17.8815 17.2079 17.7193 17.1903C15.956 17.0033 14.2972 17.3753 12.7921 18.258C10.8836 19.3773 8.92928 19.3701 6.90699 18.7379C5.81183 18.3953 4.78924 17.8879 3.83139 17.255C3.4319 16.9909 3.40313 16.8084 3.69931 16.4338C5.18677 14.5534 6.60558 12.6239 7.71905 10.4931C8.06492 9.83144 8.32907 9.12596 8.60302 8.42963C8.85605 7.78626 8.75209 7.14813 8.49579 6.52437C8.38464 6.25304 8.26565 5.98366 8.17607 5.70513C8.03027 5.24876 7.96815 4.75904 8.1813 4.32947C8.59256 3.50042 8.43564 2.7021 8.17607 1.8907C8.12311 1.72528 8.05969 1.56313 8.00412 1.39902C7.92108 1.15449 7.98712 0.955069 8.23099 0.866149C8.4716 0.777882 8.67821 0.873995 8.74948 1.12114C8.92667 1.73509 9.07443 2.35753 9.2477 2.97344C9.27777 3.07936 9.35296 3.20228 9.44384 3.2572C9.92375 3.5475 10.4161 3.81818 10.8927 4.08952L10.8934 4.08887Z" fill="#4C4C4D"/>
</svg>
