<?xml version="1.0" standalone="no"?>
<!DOCTYPE svg PUBLIC "-//W3C//DTD SVG 20010904//EN"
 "http://www.w3.org/TR/2001/REC-SVG-20010904/DTD/svg10.dtd">
<svg version="1.0" xmlns="http://www.w3.org/2000/svg"
 width="980.000000pt" height="980.000000pt" viewBox="0 0 980.000000 980.000000"
 preserveAspectRatio="xMidYMid meet">
<metadata>
Created by potrace 1.16, written by Peter Selinger 2001-2019
</metadata>
<g transform="translate(0.000000,980.000000) scale(0.100000,-0.100000)"
fill="#FFFFFF" stroke="none">
<path d="M4665 8444 c-763 -60 -1420 -316 -2011 -785 -156 -123 -437 -403
-558 -554 -445 -558 -703 -1186 -788 -1920 -16 -141 -16 -606 0 -750 84 -740
356 -1387 821 -1955 120 -146 362 -387 511 -505 147 -118 321 -237 475 -326
233 -134 586 -285 690 -296 72 -8 134 21 172 78 l28 43 -3 365 c-2 201 -5 367
-5 368 -1 0 -36 -6 -77 -15 -55 -12 -133 -16 -295 -16 -259 0 -313 10 -485 96
-91 45 -117 64 -195 143 -94 94 -93 92 -213 345 -92 193 -197 319 -342 412
-30 19 -74 54 -98 78 -35 35 -42 49 -40 74 5 51 51 68 168 63 212 -10 388
-130 552 -377 161 -243 320 -353 550 -381 118 -15 260 4 398 53 l95 34 16 75
c32 157 83 268 169 371 l40 46 -88 12 c-507 68 -845 212 -1103 469 -159 158
-263 330 -339 560 -74 221 -103 427 -104 721 -1 175 3 222 22 318 47 235 144
444 288 624 l54 67 -24 83 c-50 174 -58 404 -21 598 20 104 73 272 89 282 18
12 129 9 209 -6 180 -35 417 -139 649 -285 l128 -80 152 34 c264 60 446 79
743 79 318 1 535 -23 807 -89 l102 -25 125 79 c299 187 550 285 757 298 l102
6 16 -31 c23 -44 63 -188 82 -295 33 -179 19 -427 -33 -594 l-17 -53 32 -37
c53 -63 151 -212 189 -286 52 -104 109 -288 129 -412 21 -138 15 -502 -11
-665 -89 -558 -341 -929 -782 -1149 -205 -102 -452 -170 -786 -216 l-47 -6 45
-52 c95 -109 164 -286 185 -479 8 -70 11 -279 8 -653 -3 -540 -3 -551 18 -585
41 -71 130 -103 220 -81 85 22 309 115 474 198 562 282 1037 703 1389 1231
273 411 465 883 550 1357 45 250 55 380 55 670 0 292 -11 431 -55 670 -139
755 -528 1468 -1084 1987 -140 131 -168 154 -296 250 -561 421 -1197 662
-1893 718 -117 9 -412 11 -511 4z"/>
</g>
</svg>
