<svg width="29" height="29" viewBox="0 0 29 29" fill="none" xmlns="http://www.w3.org/2000/svg">
<path d="M25.9384 12.1059H24.9987V12.0575H14.4987V16.7241H21.0921C20.1302 19.4407 17.5454 21.3908 14.4987 21.3908C10.6329 21.3908 7.4987 18.2565 7.4987 14.3908C7.4987 10.525 10.6329 7.39079 14.4987 7.39079C16.2831 7.39079 17.9065 8.06395 19.1426 9.16354L22.4425 5.86362C20.3589 3.9217 17.5717 2.72412 14.4987 2.72412C8.05578 2.72412 2.83203 7.94787 2.83203 14.3908C2.83203 20.8337 8.05578 26.0575 14.4987 26.0575C20.9416 26.0575 26.1654 20.8337 26.1654 14.3908C26.1654 13.6085 26.0849 12.845 25.9384 12.1059Z" fill="#FFC107"/>
<path d="M4.17578 8.96054L8.00886 11.7716C9.04603 9.20379 11.5579 7.39079 14.4973 7.39079C16.2817 7.39079 17.9051 8.06395 19.1412 9.16354L22.4411 5.86362C20.3574 3.9217 17.5703 2.72412 14.4973 2.72412C10.0161 2.72412 6.12995 5.25404 4.17578 8.96054Z" fill="#FF3D00"/>
<path d="M14.4976 26.0572C17.5111 26.0572 20.2492 24.904 22.3195 23.0285L18.7087 19.973C17.498 20.8938 16.0186 21.3917 14.4976 21.3905C11.4631 21.3905 8.8865 19.4556 7.91583 16.7554L4.11133 19.6866C6.04216 23.4649 9.96333 26.0572 14.4976 26.0572Z" fill="#4CAF50"/>
<path d="M25.9378 12.1055H24.998V12.0571H14.498V16.7238H21.0915C20.6313 18.0167 19.8025 19.1465 18.7074 19.9735L18.7091 19.9724L22.32 23.0279C22.0645 23.26 26.1647 20.2238 26.1647 14.3905C26.1647 13.6082 26.0842 12.8446 25.9378 12.1055Z" fill="#1976D2"/>
</svg>
