<svg width="64" height="64" viewBox="0 0 22 18" fill="none" xmlns="http://www.w3.org/2000/svg">
<path d="M3.77838 0.469668C3.48549 0.176777 3.01061 0.176777 2.71772 0.469668C2.42483 0.762558 2.42483 1.23744 2.71772 1.53033L3.77838 0.469668ZM18.7177 17.5303C19.0106 17.8232 19.4854 17.8232 19.7783 17.5303C20.0712 17.2374 20.0712 16.7626 19.7783 16.4697L18.7177 17.5303ZM13.7482 11.795C14.0568 11.5187 14.0831 11.0446 13.8069 10.7359C13.5306 10.4273 13.0565 10.401 12.7478 10.6773L13.7482 11.795ZM9.57075 7.5002C9.84705 7.1915 9.82075 6.71739 9.51215 6.44115C9.20348 6.1649 8.72934 6.19117 8.45309 6.49981L9.57075 7.5002ZM18.3633 12.0421C18.0509 12.314 18.0181 12.7878 18.2901 13.1002C18.5621 13.4126 19.0358 13.4453 19.3482 13.1734L18.3633 12.0421ZM8.43636 1.69699C8.04112 1.82092 7.82118 2.24179 7.9451 2.63703C8.06903 3.03227 8.4899 3.25221 8.88514 3.12829L8.43636 1.69699ZM6.15159 4.43556C6.50074 4.21269 6.6031 3.74898 6.38023 3.39984C6.15736 3.0507 5.69365 2.94833 5.34451 3.1712L6.15159 4.43556ZM16.7995 15.0471C17.1544 14.8335 17.269 14.3727 17.0555 14.0177C16.8419 13.6628 16.3811 13.5482 16.0262 13.7618L16.7995 15.0471ZM2.71772 1.53033L18.7177 17.5303L19.7783 16.4697L3.77838 0.469668L2.71772 1.53033ZM7.49805 9C7.49805 11.0711 9.17698 12.75 11.248 12.75V11.25C10.0054 11.25 8.99805 10.2426 8.99805 9H7.49805ZM11.248 12.75C12.208 12.75 13.0852 12.3883 13.7482 11.795L12.7478 10.6773C12.3492 11.034 11.8247 11.25 11.248 11.25V12.75ZM8.45309 6.49981C7.85974 7.1628 7.49805 8.04 7.49805 9H8.99805C8.99805 8.4233 9.21407 7.8988 9.57075 7.5002L8.45309 6.49981ZM1.57413 11.6636C3.54575 13.738 7.09703 16.75 11.248 16.75V15.25C7.76804 15.25 4.60133 12.6713 2.66139 10.6302L1.57413 11.6636ZM20.9219 6.33641C18.9503 4.26198 15.399 1.25 11.248 1.25V2.75C14.728 2.75 17.8947 5.32869 19.8347 7.3698L20.9219 6.33641ZM20.9219 11.6636C22.3567 10.154 22.3567 7.846 20.9219 6.33641L19.8347 7.3698C20.7191 8.3004 20.7191 9.6996 19.8347 10.6302L20.9219 11.6636ZM2.66139 10.6302C1.77694 9.6996 1.77694 8.3004 2.66139 7.3698L1.57413 6.33641C0.139354 7.846 0.139353 10.154 1.57413 11.6636L2.66139 10.6302ZM19.3482 13.1734C19.9401 12.6581 20.4682 12.1409 20.9219 11.6636L19.8347 10.6302C19.4082 11.0789 18.9142 11.5624 18.3633 12.0421L19.3482 13.1734ZM11.248 1.25C10.2705 1.25 9.32815 1.41736 8.43636 1.69699L8.88514 3.12829C9.65225 2.88776 10.4428 2.75 11.248 2.75V1.25ZM5.34451 3.1712C3.81856 4.14527 2.5282 5.33259 1.57413 6.33641L2.66139 7.3698C3.56317 6.42098 4.76042 5.3236 6.15159 4.43556L5.34451 3.1712ZM11.248 16.75C13.2956 16.75 15.1883 16.0165 16.7995 15.0471L16.0262 13.7618C14.5611 14.6433 12.9366 15.25 11.248 15.25V16.75Z" fill="#49475A"/>
</svg>
