<svg width="29" height="28" viewBox="0 0 29 28" fill="none" xmlns="http://www.w3.org/2000/svg">
<path d="M8.09684 23.671C9.25793 23.671 10.2092 24.6425 10.2092 25.8426C10.2092 27.0285 9.25793 28 8.09684 28C6.92175 28 5.9705 27.0285 5.9705 25.8426C5.9705 24.6425 6.92175 23.671 8.09684 23.671ZM23.8346 23.671C24.9957 23.671 25.9469 24.6425 25.9469 25.8426C25.9469 27.0285 24.9957 28 23.8346 28C22.6595 28 21.7082 27.0285 21.7082 25.8426C21.7082 24.6425 22.6595 23.671 23.8346 23.671ZM1.73208 0.0122336L5.06848 0.525141C5.54411 0.612293 5.89384 1.0109 5.9358 1.49667L6.20159 4.69698C6.24356 5.1556 6.60728 5.49849 7.05493 5.49849H25.9472C26.8005 5.49849 27.3601 5.79852 27.9197 6.45573C28.4792 7.11294 28.5772 8.05589 28.4513 8.91168L27.1223 18.284C26.8705 20.0856 25.3597 21.4129 23.583 21.4129H8.32094C6.46039 21.4129 4.92159 19.9571 4.76771 18.0712L3.48072 2.49676L1.36836 2.1253C0.808798 2.02529 0.417104 1.46809 0.515027 0.896607C0.612951 0.312263 1.15853 -0.0749178 1.73208 0.0122336ZM21.3448 10.7833H17.4698C16.8823 10.7833 16.4206 11.2548 16.4206 11.8548C16.4206 12.4406 16.8823 12.9264 17.4698 12.9264H21.3448C21.9323 12.9264 22.394 12.4406 22.394 11.8548C22.394 11.2548 21.9323 10.7833 21.3448 10.7833Z" fill="#262626"/>
</svg>
