<svg width="20" height="21" viewBox="0 0 20 21" fill="none" xmlns="http://www.w3.org/2000/svg">
<path d="M15.8333 9.66666H4.16667C3.24619 9.66666 2.5 10.4129 2.5 11.3333V17.1667C2.5 18.0871 3.24619 18.8333 4.16667 18.8333H15.8333C16.7538 18.8333 17.5 18.0871 17.5 17.1667V11.3333C17.5 10.4129 16.7538 9.66666 15.8333 9.66666Z" stroke="#2B2D3B" stroke-width="1.66667" stroke-linecap="round" stroke-linejoin="round"/>
<path d="M5.83337 9.66666V6.33333C5.83337 5.22826 6.27236 4.16845 7.05376 3.38705C7.83516 2.60565 8.89497 2.16666 10 2.16666C11.1051 2.16666 12.1649 2.60565 12.9463 3.38705C13.7277 4.16845 14.1667 5.22826 14.1667 6.33333V9.66666" stroke="#2B2D3B" stroke-width="1.66667" stroke-linecap="round" stroke-linejoin="round"/>
</svg>
