<svg width="20" height="21" viewBox="0 0 20 21" fill="none" xmlns="http://www.w3.org/2000/svg">
<g clip-path="url(#clip0_2005_8)">
<path d="M10 13C11.3807 13 12.5 11.8807 12.5 10.5C12.5 9.11929 11.3807 8 10 8C8.61929 8 7.5 9.11929 7.5 10.5C7.5 11.8807 8.61929 13 10 13Z" stroke="#2B2D3B" stroke-width="1.66667" stroke-linecap="round" stroke-linejoin="round"/>
<path d="M16.1667 13C16.0558 13.2513 16.0227 13.5302 16.0717 13.8005C16.1207 14.0708 16.2496 14.3203 16.4417 14.5167L16.4917 14.5667C16.6467 14.7215 16.7696 14.9053 16.8535 15.1076C16.9373 15.3099 16.9805 15.5268 16.9805 15.7458C16.9805 15.9649 16.9373 16.1817 16.8535 16.3841C16.7696 16.5864 16.6467 16.7702 16.4917 16.925C16.3369 17.08 16.1531 17.2029 15.9508 17.2868C15.7484 17.3706 15.5316 17.4138 15.3125 17.4138C15.0935 17.4138 14.8766 17.3706 14.6743 17.2868C14.472 17.2029 14.2882 17.08 14.1334 16.925L14.0834 16.875C13.887 16.6829 13.6375 16.554 13.3672 16.505C13.0969 16.456 12.8181 16.4891 12.5667 16.6C12.3202 16.7056 12.11 16.881 11.962 17.1046C11.8139 17.3282 11.7344 17.5902 11.7334 17.8583V18C11.7334 18.442 11.5578 18.8659 11.2452 19.1785C10.9327 19.4911 10.5087 19.6667 10.0667 19.6667C9.62468 19.6667 9.20076 19.4911 8.8882 19.1785C8.57563 18.8659 8.40004 18.442 8.40004 18V17.925C8.39359 17.6492 8.30431 17.3817 8.1438 17.1572C7.98329 16.9328 7.75899 16.7619 7.50004 16.6667C7.24869 16.5557 6.96988 16.5226 6.69955 16.5717C6.42922 16.6207 6.17977 16.7495 5.98337 16.9417L5.93337 16.9917C5.77858 17.1466 5.59477 17.2696 5.39244 17.3534C5.19011 17.4373 4.97323 17.4805 4.75421 17.4805C4.53518 17.4805 4.3183 17.4373 4.11597 17.3534C3.91364 17.2696 3.72983 17.1466 3.57504 16.9917C3.42008 16.8369 3.29715 16.6531 3.21327 16.4507C3.1294 16.2484 3.08623 16.0315 3.08623 15.8125C3.08623 15.5935 3.1294 15.3766 3.21327 15.1743C3.29715 14.9719 3.42008 14.7881 3.57504 14.6333L3.62504 14.5833C3.81715 14.3869 3.94603 14.1375 3.99504 13.8672C4.04406 13.5968 4.01097 13.318 3.90004 13.0667C3.7944 12.8202 3.619 12.61 3.39543 12.4619C3.17185 12.3139 2.90986 12.2344 2.64171 12.2333H2.50004C2.05801 12.2333 1.63409 12.0577 1.32153 11.7452C1.00897 11.4326 0.833374 11.0087 0.833374 10.5667C0.833374 10.1246 1.00897 9.70071 1.32153 9.38815C1.63409 9.07559 2.05801 8.9 2.50004 8.9H2.57504C2.85087 8.89355 3.11838 8.80426 3.34279 8.64376C3.5672 8.48325 3.73814 8.25894 3.83337 8C3.9443 7.74865 3.97739 7.46984 3.92838 7.19951C3.87936 6.92918 3.75049 6.67973 3.55837 6.48333L3.50837 6.43333C3.35341 6.27854 3.23048 6.09473 3.14661 5.8924C3.06273 5.69007 3.01956 5.47319 3.01956 5.25416C3.01956 5.03514 3.06273 4.81826 3.14661 4.61593C3.23048 4.4136 3.35341 4.22979 3.50837 4.075C3.66316 3.92004 3.84698 3.79711 4.04931 3.71323C4.25164 3.62936 4.46851 3.58619 4.68754 3.58619C4.90657 3.58619 5.12344 3.62936 5.32577 3.71323C5.5281 3.79711 5.71192 3.92004 5.86671 4.075L5.91671 4.125C6.11311 4.31711 6.36255 4.44599 6.63288 4.495C6.90321 4.54402 7.18203 4.51093 7.43337 4.4H7.50004C7.74651 4.29436 7.95672 4.11896 8.10478 3.89539C8.25285 3.67181 8.3323 3.40982 8.33337 3.14167V3C8.33337 2.55797 8.50897 2.13405 8.82153 1.82149C9.13409 1.50893 9.55801 1.33333 10 1.33333C10.4421 1.33333 10.866 1.50893 11.1786 1.82149C11.4911 2.13405 11.6667 2.55797 11.6667 3V3.075C11.6678 3.34315 11.7472 3.60514 11.8953 3.82872C12.0434 4.05229 12.2536 4.2277 12.5 4.33333C12.7514 4.44426 13.0302 4.47735 13.3005 4.42834C13.5709 4.37932 13.8203 4.25045 14.0167 4.05833L14.0667 4.00833C14.2215 3.85337 14.4053 3.73044 14.6076 3.64657C14.81 3.56269 15.0268 3.51952 15.2459 3.51952C15.4649 3.51952 15.6818 3.56269 15.8841 3.64657C16.0864 3.73044 16.2702 3.85337 16.425 4.00833C16.58 4.16312 16.7029 4.34693 16.7868 4.54926C16.8707 4.75159 16.9139 4.96847 16.9139 5.1875C16.9139 5.40652 16.8707 5.6234 16.7868 5.82573C16.7029 6.02806 16.58 6.21188 16.425 6.36666L16.375 6.41666C16.1829 6.61306 16.0541 6.86251 16.005 7.13284C15.956 7.40317 15.9891 7.68198 16.1 7.93333V8C16.2057 8.24647 16.3811 8.45668 16.6047 8.60474C16.8282 8.7528 17.0902 8.83226 17.3584 8.83333H17.5C17.9421 8.83333 18.366 9.00893 18.6785 9.32149C18.9911 9.63405 19.1667 10.058 19.1667 10.5C19.1667 10.942 18.9911 11.3659 18.6785 11.6785C18.366 11.9911 17.9421 12.1667 17.5 12.1667H17.425C17.1569 12.1677 16.8949 12.2472 16.6713 12.3953C16.4477 12.5433 16.2723 12.7535 16.1667 13Z" stroke="#2B2D3B" stroke-width="1.66667" stroke-linecap="round" stroke-linejoin="round"/>
</g>
<defs>
<clipPath id="clip0_2005_8">
<rect width="20" height="20" fill="white" transform="translate(0 0.5)"/>
</clipPath>
</defs>
</svg>
