<svg width="23" height="20" viewBox="0 0 23 20" fill="none" xmlns="http://www.w3.org/2000/svg">
<path d="M16.7249 9.9065V10.33C16.7249 12.7058 16.7249 15.0809 16.7249 17.4567C16.7249 18.1452 16.5373 18.3332 15.8484 18.3332C12.8421 18.3332 9.83655 18.3332 6.83028 18.3332C6.14346 18.3332 5.95645 18.1445 5.95578 17.4547C5.95578 15.0789 5.95578 12.7038 5.95578 10.328V9.9065C5.7506 10.0189 5.58579 10.1045 5.42502 10.1982C4.97028 10.4632 4.73686 10.419 4.4402 9.97876C3.87917 9.1458 3.32823 8.30614 2.77259 7.46916C2.61854 7.237 2.4571 7.00819 2.31112 6.77134C2.05146 6.34917 2.14631 5.94908 2.56607 5.68146C4.15027 4.6712 5.7432 3.67365 7.31529 2.64532C7.72563 2.37703 8.14607 2.28805 8.60283 2.3476C8.80598 1.7508 8.92505 1.6665 9.53989 1.6665C10.74 1.6665 11.9401 1.6665 13.1401 1.6665C13.7577 1.6665 13.8741 1.7488 14.0779 2.35161C14.7573 2.181 15.2571 2.58109 15.7838 2.91829C17.2153 3.83623 18.6509 4.7468 20.0837 5.66206C20.5505 5.96046 20.6198 6.30301 20.3178 6.75529C19.6 7.83245 18.8829 8.91096 18.1685 9.99014C17.8921 10.4076 17.6499 10.4652 17.216 10.2049C17.0734 10.1193 16.9321 10.0316 16.7256 9.90517L16.7249 9.9065Z" fill="#262626"/>
</svg>
