<svg width="21" height="21" viewBox="0 0 21 21" fill="none" xmlns="http://www.w3.org/2000/svg">
<path d="M0.75 0.75C0.335786 0.75 0 1.08579 0 1.5C0 1.91421 0.335786 2.25 0.75 2.25H2.13568C2.30558 2.25 2.45425 2.36422 2.49803 2.52838L5.05576 12.1199C3.44178 12.5385 2.25 14.0051 2.25 15.75C2.25 16.1642 2.58579 16.5 3 16.5H18.75C19.1642 16.5 19.5 16.1642 19.5 15.75C19.5 15.3358 19.1642 15 18.75 15H3.87803C4.18691 14.1261 5.02034 13.5 6 13.5H17.2183C17.5051 13.5 17.7668 13.3364 17.8925 13.0785C19.0277 10.749 20.0183 8.33603 20.8527 5.85126C20.9191 5.65357 20.9002 5.43716 20.8005 5.25399C20.7008 5.07082 20.5294 4.93743 20.3273 4.88583C15.5055 3.65442 10.4536 3 5.25 3C4.89217 3 4.53505 3.0031 4.17868 3.00926L3.94738 2.14188C3.7285 1.32109 2.98515 0.75 2.13568 0.75H0.75Z" fill="#262626"/>
<path d="M2.25 18.75C2.25 17.9216 2.92157 17.25 3.75 17.25C4.57843 17.25 5.25 17.9216 5.25 18.75C5.25 19.5784 4.57843 20.25 3.75 20.25C2.92157 20.25 2.25 19.5784 2.25 18.75Z" fill="#262626"/>
<path d="M15 18.75C15 17.9216 15.6716 17.25 16.5 17.25C17.3284 17.25 18 17.9216 18 18.75C18 19.5784 17.3284 20.25 16.5 20.25C15.6716 20.25 15 19.5784 15 18.75Z" fill="#262626"/>
</svg>
